<?xml version="1.0" encoding="utf-8"?>
<!-- Generator: Adobe Illustrator 16.0.0, SVG Export Plug-In . SVG Version: 6.00 Build 0)  -->
<!DOCTYPE svg PUBLIC "-//W3C//DTD SVG 1.1//EN" "http://www.w3.org/Graphics/SVG/1.1/DTD/svg11.dtd">
<svg version="1.1" id="Layer_1" xmlns="http://www.w3.org/2000/svg" xmlns:xlink="http://www.w3.org/1999/xlink" x="0px" y="0px"
	 width="1922.904px" height="1922.894px" viewBox="0 0 1922.904 1922.894" enable-background="new 0 0 1922.904 1922.894"
	 xml:space="preserve">
<g>
	<path fill="#6D6E71" d="M1922.904,961.489c0,530.981-430.465,961.405-961.478,961.405C430.383,1922.894,0,1492.47,0,961.489
		C0,430.476,430.383,0,961.427,0C1492.439,0,1922.904,430.476,1922.904,961.489z"/>
	<g>
		<g>
			<path fill="#C7C8CA" d="M1073.889,154.923l-30.082,17.056c0.281-0.798-25.963-22.956-25.963-22.956l-45.219-2.167
				c0,0-2.934,19.826-5.889,39.67c-2.655,19.846-5.31,39.693-5.31,39.693l40.626,2.011l6.895-35.896c0,0,7.715,5.433,15.46,10.855
				c7.662,5.256,15.024,11.261,15.024,11.24l34.342-15.366l-0.58,36.498c0,0,40.366,5.598,40.138,6.781
				c0,0,1.493-20.178,2.956-40.376c1.213-20.219,2.426-40.439,2.426-40.439L1073.889,154.923z"/>
			<path fill="#C7C8CA" d="M1206.195,184.214l-10.607-3.68l-32.932-8.266c0,0-11.426,17.742-22.874,35.483
				c-10.763,17.908-21.505,35.825-21.505,35.825l39.463,9.737c0,0,9.447-14.134,18.862-28.266
				c9.715-14.299,19.556-27.437,19.556-27.437s0.352,17.058,0.693,34.072c-0.092,16.912-0.164,33.814-0.164,33.814l38.416,13.428
				c0,0,1.121-20.739,2.261-41.476c0.456-20.999,0.934-42.006,0.934-42.006L1206.195,184.214z"/>
			<path fill="#C7C8CA" d="M1377.178,290.547c12.434-19.596-15.387-38.396-35.035-49.719c0.414-0.819-30.775-14.899-30.775-14.899
				l-10.462-4.812l-30.724-14.122l-30.277,73.94l37.09,17.108l25.238-52.964l21.723,10.018c7.227,3.628,6.998,17.543-2.488,19.534
				c-9.375,2.188-21.153-1.088-21.185-1.088c0,0,3.609,10.481,7.175,20.965c2.945,10.96,5.891,21.931,5.891,21.931l39.557,22.853
				l-8.678-35.69C1344.227,303.602,1368.635,304.006,1377.178,290.547"/>
			<path fill="#C7C8CA" d="M1728.229,774.476c11.105-2.655,16.071-12.391,16.393-24.025c0.021-11.552-3.629-25.113-7.009-35.804
				l-10.368-32.766c0.3-0.104-4.221-10.585-4.221-10.585l-13.075-31.046l-73.423,31.542c0,0,3.961,9.353,7.923,18.707
				c1.979,4.685,3.981,9.353,5.474,12.856c1.576,3.484,2.303,5.932,2.303,5.932l55.09-20.126l7.289,23.06
				c2.364,7.444-6.958,17.254-15.48,12.131c-8.586-5.05-13.646-15.854-13.646-15.854s-5.236,10.068-10.441,20.095
				c-5.33,9.736-10.628,19.463-10.628,19.463s3.453,10.949,6.938,21.92c3.078,11.031,5.09,22.387,5.09,22.387
				c-0.021-0.021,20.613-31.585,19.815-31.636c0-0.031,4.759,4.105,10.431,8.099
				C1712.592,772.743,1720.494,776.353,1728.229,774.476"/>
			<polygon fill="#C7C8CA" points="1357.425,341.905 1390.699,365.422 1437.411,300.646 1400.509,274.631 			"/>
			<path fill="#C7C8CA" d="M1680.562,579.115l-5.402-10.07c0,0-15.781-30.006-16.404-29.612c0,0-20.799,4.75-41.589,9.508
				c-20.417,5.331-40.863,10.66-40.863,10.66c0,0.021,22.666,34.01,21.712,34.581c0,0,16.33-3.317,32.672-6.667
				c16.539-2.944,33.119-5.879,33.119-5.879s-11.52,12.298-23.04,24.604c-11.759,11.904-23.485,23.808-23.485,23.808
				s5.236,8.822,9.332,18.165c3.951,9.416,7.932,18.811,7.932,18.811s15.615-14.236,31.294-28.495
				c15.325-14.868,30.64-29.748,30.64-29.748L1680.562,579.115z"/>
			<path fill="#C7C8CA" d="M1498.931,342.589c29.53,23.767,34.569,61.333,16.818,78.089c-18.581,17.668-50.331,10.814-76.202-9.726
				c-12.732-10.681-20.509-24.813-24.366-37.878c-4.034-12.848-3.038-26.036,4.376-36.167c7.383-10.058,19.928-15.025,34.735-14.527
				C1468.933,323.044,1484.643,330.562,1498.931,342.589 M1460.451,386.864c7.809,6.688,18.052,7.59,23.102,2.157
				c4.967-5.412,2.54-15.326-5.588-22.283c-8.005-6.875-18.291-7.861-22.969-2.188
				C1450.311,370.275,1452.758,380.281,1460.451,386.864"/>
			<path fill="#C7C8CA" d="M1610.883,469.566c0,0-13.479-1.886-26.959-3.743c-13.189-1.555-26.398-3.068-26.398-3.068l28.587-23.954
				c0,0-7.165-8.803-14.31-17.617c-7.891-8.16-15.771-16.321-15.771-16.321l-58.345,54.603c0,0,7.195,7.342,14.33,14.683
				c6.407,7.976,12.847,15.958,12.847,15.958l28.629-23.971c0,0-1.422,13.095-2.82,26.201c-1.742,12.765-3.443,25.497-3.443,25.497
				c1.047-0.715,26.191,37.444,26.191,37.444s2.936-13.678,5.839-27.345c1.368-7.019,2.685-14.028,3.681-19.317
				c0.746-5.173,1.213-8.626,1.213-8.626s3.557,0.519,8.865,1.286c5.186,0.996,12.049,2.332,18.902,3.691
				c14.039,3.028,28.027,6.065,28.027,6.065C1639.916,511.031,1611.962,468.82,1610.883,469.566z"/>
			<path fill="#C7C8CA" d="M1774.826,908.089l-5.029-44.866c0,0-4.987-45.011-6.201-44.824l-9.404-44.349l-20.664,4.854
				l9.187,43.196l-57.776,10.244c1.172-0.217,5.537,40.429,5.537,40.429l58.264-7.02l4.936,43.705L1774.826,908.089z"/>
		</g>
		<g>
			<path fill="#C7C8CA" d="M848.945,1768.037l30.11-17.049c-0.29,0.777,25.933,22.928,25.933,22.928l45.22,2.188
				c0,0,2.934-19.836,5.89-39.682c2.685-19.848,5.329-39.693,5.329-39.693l-40.646-2.012l-6.885,35.898
				c0,0-7.714-5.426-15.471-10.855c-7.662-5.238-14.992-11.264-14.992-11.252l-34.374,15.377l0.581-36.479
				c0,0-40.356-5.629-40.127-6.811c0,0-1.484,20.207-2.966,40.385c-1.214,20.219-2.427,40.449-2.427,40.449L848.945,1768.037z"/>
			<path fill="#C7C8CA" d="M716.658,1738.742l10.597,3.684l32.922,8.264c0,0,11.447-17.752,22.873-35.494
				c10.764-17.918,21.517-35.824,21.517-35.824l-39.465-9.725c0,0-9.445,14.131-18.871,28.254
				c-9.695,14.299-19.546,27.426-19.546,27.426s-0.353-17.025-0.685-34.062c0.073-16.92,0.167-33.812,0.167-33.812l-38.418-13.428
				c0,0-1.14,20.738-2.25,41.486c-0.455,21.008-0.964,41.982-0.964,41.982L716.658,1738.742z"/>
			<path fill="#C7C8CA" d="M545.653,1632.4c-12.41,19.576,15.419,38.396,35.059,49.709c-0.436,0.828,30.765,14.91,30.765,14.91
				l10.451,4.811l30.734,14.102l30.267-73.92l-37.059-17.098l-25.27,52.953l-21.724-10.016c-7.216-3.639-6.988-17.545,2.521-19.555
				c9.343-2.158,21.143,1.119,21.152,1.088c0,0-3.587-10.473-7.154-20.967c-2.935-10.939-5.91-21.889-5.91-21.889l-39.547-22.895
				l8.699,35.699C578.606,1619.333,554.209,1618.919,545.653,1632.4"/>
			<path fill="#C7C8CA" d="M194.666,1148.419c-11.126,2.654-16.082,12.402-16.383,24.025c-0.042,11.551,3.629,25.113,6.989,35.803
				l10.358,32.766c-0.291,0.094,4.22,10.578,4.22,10.578l13.106,31.055l73.401-31.521c0,0-3.971-9.354-7.932-18.727
				c-1.981-4.688-3.981-9.354-5.434-12.857c-1.618-3.473-2.312-5.91-2.312-5.91l-55.131,20.105l-7.248-23.072
				c-2.364-7.434,6.957-17.252,15.491-12.131c8.585,5.061,13.624,15.875,13.624,15.875s5.216-10.057,10.452-20.105
				c5.309-9.736,10.618-19.461,10.618-19.461s-3.453-10.951-6.927-21.9c-3.09-11.064-5.112-22.396-5.112-22.396
				s-20.582,31.562-19.814,31.635c0,0-4.738-4.115-10.452-8.107C210.313,1150.14,202.423,1146.542,194.666,1148.419"/>
			<polygon fill="#C7C8CA" points="565.406,1581.023 532.164,1557.505 485.441,1622.289 522.324,1648.296 			"/>
			<path fill="#C7C8CA" d="M242.28,1343.781l5.423,10.068c0,0,15.781,29.996,16.404,29.633c0,0,20.8-4.768,41.6-9.508
				c20.416-5.338,40.854-10.678,40.854-10.678s-22.646-34.002-21.66-34.582c0,0-16.363,3.34-32.704,6.668
				c-16.56,2.934-33.129,5.9-33.129,5.9s11.53-12.309,23.05-24.627c11.748-11.902,23.465-23.807,23.465-23.807
				s-5.235-8.793-9.3-18.156c-3.982-9.416-7.912-18.809-7.912-18.809s-15.667,14.225-31.345,28.504
				c-15.315,14.848-30.64,29.736-30.64,29.736L242.28,1343.781z"/>
			<path fill="#C7C8CA" d="M423.913,1580.316c-29.542-23.764-34.561-61.322-16.818-78.078c18.602-17.646,50.372-10.805,76.211,9.758
				c12.732,10.658,20.5,24.793,24.388,37.879c4.013,12.846,3.028,26.035-4.407,36.145c-7.372,10.08-19.918,15.004-34.735,14.547
				C453.931,1599.873,438.201,1592.375,423.913,1580.316 M462.392,1536.05c-7.818-6.688-18.063-7.58-23.081-2.135
				c-4.967,5.393-2.541,15.293,5.568,22.271c8.005,6.865,18.28,7.861,22.957,2.18
				C472.532,1552.673,470.075,1542.658,462.392,1536.05"/>
			<path fill="#C7C8CA" d="M311.949,1453.328c0,0,13.479,1.889,26.959,3.775c13.221,1.525,26.42,3.059,26.42,3.059l-28.577,23.932
				c0,0,7.145,8.824,14.31,17.658c7.891,8.141,15.792,16.289,15.792,16.289l58.294-54.572c0,0-7.144-7.342-14.288-14.703
				c-6.419-7.973-12.868-15.947-12.868-15.947l-28.618,23.963c0,0,1.42-13.096,2.842-26.221c1.7-12.744,3.391-25.5,3.391-25.5
				c-0.996,0.758-26.161-37.42-26.161-37.42s-2.935,13.676-5.838,27.342c-1.349,7.02-2.687,14.039-3.682,19.297
				c-0.746,5.174-1.244,8.639-1.244,8.639s-3.535-0.498-8.834-1.277c-5.163-1.006-12.049-2.354-18.934-3.689
				c-14.008-3.041-27.996-6.066-27.996-6.066C282.957,1411.853,310.912,1454.107,311.949,1453.328z"/>
			<path fill="#C7C8CA" d="M148.058,1014.806l5.05,44.857c0,0,4.967,45.01,6.19,44.834l9.415,44.348l20.655-4.863l-9.177-43.197
				l57.775-10.213c-1.203,0.188-5.527-40.449-5.578-40.449l-58.232,7.01l-4.915-43.705L148.058,1014.806z"/>
		</g>
	</g>
	<path fill="#262626" d="M1659.141,961.489c0,385.259-312.395,697.663-697.714,697.663c-385.267,0-697.714-312.404-697.714-697.663
		c0-385.297,312.447-697.671,697.714-697.671C1346.746,263.817,1659.141,576.191,1659.141,961.489z"/>
	<path fill="#FFDD00" d="M1626.094,961.489c0,367.071-297.545,664.626-664.667,664.626c-367.153,0-664.638-297.555-664.638-664.626
		c0-367.091,297.484-664.658,664.638-664.658C1328.549,296.831,1626.094,594.397,1626.094,961.489z"/>
	<path fill="#E9C12D" d="M1539.98,961.489c0,319.528-259.119,578.503-578.554,578.503c-319.591,0-578.513-258.975-578.513-578.503
		c0-319.498,258.922-578.523,578.513-578.523C1280.861,382.965,1539.98,641.991,1539.98,961.489z"/>
	<path fill="#FFFFFF" d="M1068.465,961.489c0,59.081-47.914,107.038-107.038,107.038c-59.082,0-107.007-47.957-107.007-107.038
		c0-59.154,47.925-107.038,107.007-107.038C1020.551,854.451,1068.465,902.334,1068.465,961.489z"/>
	<path fill="#E2E3E4" d="M1068.465,961.489c0,59.081-47.914,107.038-107.038,107.038c-59.082,0-107.007-47.957-107.007-107.038
		c0-59.154,47.925-107.038,107.007-107.038C1020.551,854.451,1068.465,902.334,1068.465,961.489z"/>
	<path d="M1034.818,961.489c0,40.491-32.901,73.36-73.392,73.36c-40.438,0-73.339-32.869-73.339-73.36
		c0-40.521,32.9-73.38,73.339-73.38C1001.917,888.108,1034.818,920.968,1034.818,961.489z"/>
	<g>
		<path d="M1459.363,522.199c-18.312-20.768-37.941-40.304-58.699-58.635l-25.404,25.496c20.748,18.24,40.294,37.836,58.584,58.606
			L1459.363,522.199z"/>
		<path d="M1400.777,1459.416c20.738-18.334,40.273-37.951,58.586-58.689l-25.52-25.477c-18.248,20.822-37.836,40.367-58.584,58.586
			L1400.777,1459.416z"/>
		<path d="M463.501,1400.757c18.354,20.707,37.94,40.324,58.709,58.658l25.394-25.549c-20.748-18.219-40.272-37.795-58.574-58.617
			L463.501,1400.757z"/>
		<path d="M522.137,463.564c-20.737,18.331-40.282,37.907-58.636,58.635l25.528,25.467c18.239-20.77,37.826-40.305,58.574-58.575
			L522.137,463.564z"/>
	</g>
	<g>
		<path fill="#4D4D4F" d="M138.882,465.565c33.947-13.832,80.67-29.677,135.895-39.237c11.53-14.889,23.724-29.229,36.291-43.3
			c-56.915,6.294-105.524,19.784-140.012,31.73C159.641,431.232,149.312,448.384,138.882,465.565z"/>
		<path fill="#4D4D4F" d="M730.479,29.179c33.823,14.205,78.026,36.146,123.878,68.403c18.664-2.353,37.453-4.012,56.262-5.039
			c-44.763-35.7-88.634-60.628-121.472-76.502C769.457,19.546,750.035,24.419,730.479,29.179z"/>
		<path fill="#4D4D4F" d="M1457.413,138.934c13.822,33.969,29.571,80.722,39.184,135.946c14.859,11.521,29.354,23.662,43.384,36.271
			c-6.428-57.008-19.877-105.535-31.801-140.021C1491.787,159.67,1474.512,149.365,1457.413,138.934z"/>
		<path fill="#4D4D4F" d="M1893.83,730.51c-14.277,33.876-36.229,78.027-68.393,123.879c2.302,18.675,3.92,37.494,5.018,56.282
			c35.731-44.795,60.502-88.644,76.523-121.472C1903.442,769.582,1898.537,750.035,1893.83,730.51z"/>
		<path fill="#4D4D4F" d="M1783.962,1457.476c-33.917,13.779-80.65,29.613-135.886,39.174
			c-11.52,14.941-23.609,29.301-36.271,43.342c56.946-6.326,105.535-19.814,140.032-31.779
			C1763.285,1491.808,1773.654,1474.554,1783.962,1457.476z"/>
		<path fill="#4D4D4F" d="M1192.426,1893.843c-33.824-14.27-78.037-36.096-123.889-68.322c-18.695,2.279-37.514,3.857-56.252,4.924
			c44.774,35.721,88.624,60.617,121.463,76.545C1153.438,1903.402,1172.89,1898.558,1192.426,1893.843z"/>
		<path fill="#4D4D4F" d="M465.472,1784.076c-13.801-33.969-29.572-80.713-39.175-135.947
			c-14.89-11.529-29.344-23.693-43.383-36.207c6.438,56.914,19.814,105.473,31.739,139.98
			C431.078,1763.246,448.342,1773.644,465.472,1784.076z"/>
		<path fill="#4D4D4F" d="M29.054,1192.447c14.268-33.855,36.209-78.006,68.373-123.826c-2.261-18.727-3.93-37.535-4.978-56.314
			c-35.751,44.764-60.544,88.676-76.532,121.473C19.463,1153.458,24.367,1172.9,29.054,1192.447z"/>
	</g>
	<path fill="#D4B02A" d="M1294.269,821.748l77.444-32.549c-45.135-107.36-130.201-193.847-237.571-238.952l-32.61,77.56
		C1188.631,664.42,1257.594,734.597,1294.269,821.748z M1295.129,1101.521c-36.695,87.203-106.498,156.945-193.598,193.588
		l32.61,77.57c107.37-45.084,193.328-131.137,238.516-238.549L1295.129,1101.521z M627.786,1101.521l-77.58,32.609
		c45.146,107.412,131.198,193.465,238.537,238.549l32.6-77.57C734.234,1258.466,664.431,1188.724,627.786,1101.521z
		 M551.212,789.199l77.425,32.549c36.634-87.151,105.598-157.328,192.706-193.941l-32.6-77.56
		C681.404,595.352,596.286,681.839,551.212,789.199z"/>
	<g>
		<path d="M961.427,482.444c-36.872,0-61.354,3.351-58.979,47.896c2.489,44.534,14.475,210.54,14.475,210.54
			s1.182,28.835,44.504,28.835c43.372,0,44.534-28.835,44.534-28.835s12.039-166.006,14.455-210.54
			C1022.779,485.795,998.309,482.444,961.427,482.444z"/>
		<path d="M1440.439,961.489c0-36.903-3.35-61.384-47.884-58.977c-44.483,2.415-210.499,14.442-210.499,14.442
			s-28.847,1.15-28.847,44.535c0,43.269,28.847,44.513,28.847,44.513s166.016,12.029,210.499,14.424
			C1437.09,1022.873,1440.439,998.32,1440.439,961.489z"/>
		<path d="M961.427,1440.451c36.882,0,61.353-3.287,58.989-47.832c-2.416-44.545-14.455-210.543-14.455-210.543
			s-1.162-28.834-44.534-28.834c-43.322,0-44.504,28.834-44.504,28.834s-11.985,165.998-14.475,210.543
			C900.073,1437.164,924.555,1440.451,961.427,1440.451z"/>
		<path d="M482.445,961.489c0,36.831,3.298,61.384,47.874,58.937c44.472-2.395,210.488-14.424,210.488-14.424
			s28.877-1.244,28.877-44.513c0-43.384-28.877-44.535-28.877-44.535s-166.017-12.027-210.488-14.442
			C485.743,900.104,482.445,924.586,482.445,961.489z"/>
	</g>
</g>
</svg>
